# xmcd
#
# Track frame offsets:
# 150
# 20135
# 36992
# 49393
# 63976
# 80851
# 102186
# 117370
# 132296
# 149376
# 163082
# 182661
# 198253
# 216838
# 236452
# 248850
# 261957
# 274691
#
# Disc length: 3870 seconds
#
#
# Revision: 3
# Processed by: cddbd v1.5.1PL2 Copyright (c) Steve Scherf et al.
# Submitted via: FreeRIP 2.944 
#
DISCID=130f1c12
DTITLE=Promo Only Country Radio August 2005 - Promo Only Country Radio August 2005
DYEAR=2005
DGENRE=COUNTRY RADIO
TTITLE0=Cowboy Troy - If You Don't Wanna Love Me
TTITLE1=Carrie Underwood - Inside Your Heaven
TTITLE2=Aaron Tippin - Come Friday
TTITLE3=Jessica Andrews - Summer Girl
TTITLE4=Randy Travis - Angels
TTITLE5=Kacey Jones - Down At The Piggly Wiggly
TTITLE6=Billy Dean - Race You To The Bottom
TTITLE7=Catherine Britt Feat. Elton John - Where We Both Say Goodbye
TTITLE8=Susan Haynes - Crooked Little Heart
TTITLE9=Jeff Bates - Good People
TTITLE10=Kevin Fowler - Don't Touch My Willie
TTITLE11=Brice Long - It's Only Monday
TTITLE12=Brad Paisley - Alcohol
TTITLE13=Big Blue Hearts - Lovin' You
TTITLE14=Kevin Sharp - I Think I'll Stay
TTITLE15=Jace Everett - That's The Kind Of Love I'm In
TTITLE16=David Ball - Too Much Blood In My Alcohol Level
TTITLE17=Lisa Brokop - Big Picture
EXTD=
EXTT0=
EXTT1=
EXTT2=
EXTT3=
EXTT4=
EXTT5=
EXTT6=
EXTT7=
EXTT8=
EXTT9=
EXTT10=
EXTT11=
EXTT12=
EXTT13=
EXTT14=
EXTT15=
EXTT16=
EXTT17=
PLAYORDER=
